<svg width="169" height="30" viewBox="0 0 169 30" fill="none" xmlns="http://www.w3.org/2000/svg">
<path d="M0.0916194 29V1.36364H18.9567V6.78835H6.77131V12.456H17.7557V17.8942H6.77131V29H0.0916194ZM48.4047 15.1818C48.4047 18.2225 47.8199 20.8 46.6504 22.9141C45.4809 25.0282 43.8976 26.634 41.9004 27.7315C39.9122 28.8291 37.6812 29.3778 35.2072 29.3778C32.7243 29.3778 30.4887 28.8246 28.5005 27.718C26.5124 26.6115 24.9335 25.0057 23.764 22.9006C22.6035 20.7865 22.0233 18.2135 22.0233 15.1818C22.0233 12.1411 22.6035 9.56368 23.764 7.44957C24.9335 5.33546 26.5124 3.72964 28.5005 2.6321C30.4887 1.53456 32.7243 0.985794 35.2072 0.985794C37.6812 0.985794 39.9122 1.53456 41.9004 2.6321C43.8976 3.72964 45.4809 5.33546 46.6504 7.44957C47.8199 9.56368 48.4047 12.1411 48.4047 15.1818ZM41.5765 15.1818C41.5765 13.3826 41.3201 11.8622 40.8074 10.6207C40.3036 9.37926 39.5749 8.43916 38.6213 7.80042C37.6767 7.16169 36.5386 6.84233 35.2072 6.84233C33.8848 6.84233 32.7467 7.16169 31.7931 7.80042C30.8395 8.43916 30.1064 9.37926 29.5936 10.6207C29.0898 11.8622 28.8379 13.3826 28.8379 15.1818C28.8379 16.9811 29.0898 18.5014 29.5936 19.7429C30.1064 20.9844 30.8395 21.9245 31.7931 22.5632C32.7467 23.2019 33.8848 23.5213 35.2072 23.5213C36.5386 23.5213 37.6767 23.2019 38.6213 22.5632C39.5749 21.9245 40.3036 20.9844 40.8074 19.7429C41.3201 18.5014 41.5765 16.9811 41.5765 15.1818ZM78.389 15.1818C78.389 18.2225 77.8043 20.8 76.6348 22.9141C75.4653 25.0282 73.8819 26.634 71.8848 27.7315C69.8966 28.8291 67.6655 29.3778 65.1916 29.3778C62.7086 29.3778 60.4731 28.8246 58.4849 27.718C56.4967 26.6115 54.9179 25.0057 53.7484 22.9006C52.5879 20.7865 52.0076 18.2135 52.0076 15.1818C52.0076 12.1411 52.5879 9.56368 53.7484 7.44957C54.9179 5.33546 56.4967 3.72964 58.4849 2.6321C60.4731 1.53456 62.7086 0.985794 65.1916 0.985794C67.6655 0.985794 69.8966 1.53456 71.8848 2.6321C73.8819 3.72964 75.4653 5.33546 76.6348 7.44957C77.8043 9.56368 78.389 12.1411 78.389 15.1818ZM71.5609 15.1818C71.5609 13.3826 71.3045 11.8622 70.7917 10.6207C70.2879 9.37926 69.5592 8.43916 68.6056 7.80042C67.661 7.16169 66.523 6.84233 65.1916 6.84233C63.8691 6.84233 62.7311 7.16169 61.7775 7.80042C60.8239 8.43916 60.0907 9.37926 59.5779 10.6207C59.0742 11.8622 58.8223 13.3826 58.8223 15.1818C58.8223 16.9811 59.0742 18.5014 59.5779 19.7429C60.0907 20.9844 60.8239 21.9245 61.7775 22.5632C62.7311 23.2019 63.8691 23.5213 65.1916 23.5213C66.523 23.5213 67.661 23.2019 68.6056 22.5632C69.5592 21.9245 70.2879 20.9844 70.7917 19.7429C71.3045 18.5014 71.5609 16.9811 71.5609 15.1818ZM92.5041 29H82.2889V1.36364H92.4906C95.3064 1.36364 97.7309 1.9169 99.764 3.02344C101.806 4.12097 103.381 5.70431 104.487 7.77344C105.594 9.83357 106.147 12.2985 106.147 15.1683C106.147 18.0471 105.594 20.5211 104.487 22.5902C103.39 24.6593 101.82 26.2472 99.7775 27.3537C97.7354 28.4512 95.3109 29 92.5041 29ZM88.9686 23.3054H92.2477C93.795 23.3054 95.104 23.0445 96.1745 22.5227C97.2541 21.992 98.0682 21.1328 98.617 19.9453C99.1748 18.7488 99.4537 17.1565 99.4537 15.1683C99.4537 13.1802 99.1748 11.5968 98.617 10.4183C98.0592 9.23082 97.2361 8.37618 96.1476 7.8544C95.068 7.32363 93.7366 7.05824 92.1532 7.05824H88.9686V23.3054Z" fill="#FF7A00"/>
<path d="M106.852 1.36364H114.314L120.157 12.9283H120.4L126.243 1.36364H133.706L123.598 19.7699V29H116.959V19.7699L106.852 1.36364ZM135.129 1.36364H142.592L148.435 12.9283H148.678L154.521 1.36364H161.983L151.876 19.7699V29H145.237V19.7699L135.129 1.36364ZM165.451 29.3913C164.479 29.3913 163.647 29.0495 162.955 28.3658C162.271 27.6821 161.933 26.8544 161.942 25.8828C161.933 24.9292 162.271 24.1151 162.955 23.4403C163.647 22.7566 164.479 22.4148 165.451 22.4148C166.369 22.4148 167.178 22.7566 167.88 23.4403C168.591 24.1151 168.951 24.9292 168.96 25.8828C168.951 26.5305 168.78 27.1198 168.447 27.6506C168.123 28.1813 167.696 28.6042 167.165 28.919C166.643 29.2339 166.072 29.3913 165.451 29.3913Z" fill="black"/>
</svg>
